<svg version="1.1" id="Layer_1" xmlns="http://www.w3.org/2000/svg" xmlns:xlink="http://www.w3.org/1999/xlink" x="0px" y="0px"
	 width="100%" viewBox="0 0 100 66" enable-background="new 0 0 100 66" xml:space="preserve">
<path fill="#FDFEFD" opacity="1.000000" stroke="none" 
	d="
M1.000000,26.000000 
	C1.000000,17.681332 1.000000,9.362664 1.000000,1.021998 
	C34.259995,1.021998 67.520012,1.021998 100.890015,1.021998 
	C100.890015,22.887466 100.890015,44.775669 100.890015,67.000000 
	C81.980423,67.000000 62.958870,67.000000 43.231689,66.704460 
	C38.087299,64.755569 32.224968,65.914642 30.005852,59.735924 
	C30.336937,58.707607 30.838953,57.958584 30.791954,57.245762 
	C30.678770,55.529053 30.308563,53.829296 30.412979,52.027672 
	C31.913662,51.688660 33.385014,51.808151 34.106606,51.129936 
	C35.984524,49.364883 37.533401,47.249748 39.213551,45.274277 
	C37.162804,44.439835 35.112061,43.605392 33.051517,42.497292 
	C33.041019,41.858814 33.040321,41.493992 33.366951,41.008461 
	C36.392067,38.566330 39.089851,36.244919 42.105545,33.921402 
	C42.949196,33.372124 43.474937,32.824940 44.340801,32.156769 
	C47.782829,30.637806 50.884731,29.239830 54.303444,27.813004 
	C55.215801,27.334257 55.811352,26.884359 56.987797,25.995640 
	C55.472706,26.161207 54.723888,26.243034 53.528824,26.246990 
	C49.478081,26.169119 45.873585,26.169119 42.269089,26.169119 
	C39.556290,23.495924 36.372482,21.130587 32.819897,20.245537 
	C21.370817,17.393246 21.317429,17.602566 19.546322,6.451274 
	C16.796183,9.706317 15.968672,13.028909 18.291115,15.590417 
	C20.826338,18.386606 24.364981,20.391462 27.724751,22.281796 
	C30.139082,23.640186 32.977749,24.244387 35.627125,25.185030 
	C35.525642,25.572504 35.424160,25.959978 35.322678,26.347452 
	C24.547922,26.347452 13.773169,26.347452 2.653342,26.292709 
	C1.872179,26.158644 1.436090,26.079321 1.000000,26.000000 
M24.354168,3.940011 
	C24.354168,3.940011 24.383289,3.894957 23.559793,3.914289 
	C22.245403,4.651848 20.931013,5.389407 19.616623,6.126966 
	C19.866409,6.512053 20.116196,6.897140 20.365982,7.282227 
	C21.845108,6.899587 23.324232,6.516946 24.990723,6.052265 
	C24.990723,6.052265 25.397846,6.120965 26.175846,6.042195 
	C26.696098,6.073510 27.216352,6.104825 28.146156,6.722247 
	C28.610821,7.817220 29.269588,8.873150 29.499348,10.015374 
	C29.963692,12.323819 30.195148,14.679110 30.522646,17.015081 
	C35.022064,11.598114 34.517574,9.590624 28.465775,4.309732 
	C27.086103,4.168005 25.706434,4.026276 24.354168,3.940011 
M86.463768,52.868782 
	C86.463768,52.868782 86.492264,52.883789 87.063423,52.085358 
	C87.161926,50.635059 87.111565,49.150822 87.430733,47.750832 
	C87.562050,47.174824 88.488777,46.780159 89.137909,47.107189 
	C90.085533,49.569778 91.033165,52.032368 91.964622,54.452915 
	C90.756783,55.348053 89.732147,56.107414 88.215134,57.231682 
	C93.298355,57.464779 96.771126,51.908394 96.534393,44.560989 
	C95.245506,46.283218 94.256004,47.605396 93.468742,48.657341 
	C91.112175,48.991570 92.324348,43.753906 88.331749,46.554073 
	C85.396179,46.025524 82.460609,45.496971 79.021797,44.877811 
	C79.021797,46.886734 79.021797,48.146851 78.072952,49.580830 
	C77.662811,48.925201 77.405350,47.994629 76.813599,47.666016 
	C75.106522,46.718029 73.123230,45.199448 71.521996,45.477943 
	C70.313011,45.688213 68.716644,48.353371 68.781570,49.861832 
	C68.843925,51.310593 70.770180,53.758179 71.970078,53.815170 
	C73.595383,53.892365 75.357018,52.179680 76.964340,51.093063 
	C77.753220,50.559746 78.326187,49.707035 79.037758,50.279720 
	C79.084663,50.703735 79.131561,51.127750 79.025795,52.109158 
	C79.076691,52.679653 79.127579,53.250145 79.040123,54.602123 
	C79.298828,55.597195 79.557533,56.592266 79.816238,57.587341 
	C80.208847,57.513779 80.601463,57.440216 80.994072,57.366653 
	C81.060760,56.267410 81.127449,55.168167 81.800560,53.989620 
	C82.206139,53.958233 82.611710,53.926846 83.596771,54.094448 
	C84.549812,53.695866 85.502853,53.297279 86.463768,52.868782 
M53.381691,54.124180 
	C54.551083,53.132442 55.720470,52.140709 56.889858,51.148968 
	C55.010094,49.109989 53.130333,47.071014 50.966988,44.724434 
	C52.736530,44.625900 54.394577,44.533573 56.052624,44.441246 
	C56.017941,43.795479 55.983253,43.149708 55.948566,42.503941 
	C53.706287,42.769661 50.363575,42.195816 49.410450,43.445087 
	C45.069515,49.134811 53.415554,47.872471 54.508068,51.976185 
	C52.125446,51.637173 50.303143,51.377884 48.480843,51.118595 
	C48.313457,51.540394 48.146069,51.962196 47.978683,52.383995 
	C49.517834,52.974865 51.056984,53.565735 53.381691,54.124180 
M58.832088,47.368446 
	C58.968914,49.593346 59.105740,51.818245 59.242569,54.043144 
	C59.591911,54.023857 59.941257,54.004570 60.290600,53.985287 
	C60.933537,51.579338 61.576473,49.173393 62.219410,46.767445 
	C62.726120,46.893826 63.232830,47.020203 63.739540,47.146580 
	C63.936256,49.443192 64.132973,51.739799 64.329689,54.036407 
	C64.802208,54.022861 65.274727,54.009315 65.747246,53.995770 
	C65.884674,51.396194 66.022110,48.796623 66.171173,45.976940 
	C64.383224,45.976940 62.938530,45.976940 61.548138,45.976940 
	C61.063942,44.426090 60.638912,43.064758 60.213886,41.703426 
	C59.753391,41.752544 59.292892,41.801659 58.832397,41.850777 
	C58.832397,43.430115 58.832397,45.009453 58.832088,47.368446 
M37.368290,60.524761 
	C37.158104,60.470612 36.947914,60.416466 36.737728,60.362316 
	C36.872795,60.495285 37.007862,60.628258 37.368290,60.524761 
M33.439724,59.488113 
	C33.439724,59.488113 33.489456,59.509041 33.439724,59.488113 
z"/>
<path fill="#FDFEFD" opacity="1.000000" stroke="none" 
	d="
M16.000000,67.000000 
	C11.040121,67.000000 6.080242,67.000000 1.000000,67.000000 
	C1.000000,53.979309 1.000000,40.958313 1.271532,27.333937 
	C2.029307,27.059446 2.515550,27.388334 3.341305,27.897173 
	C6.688265,29.334621 9.778150,30.427992 12.684109,31.887552 
	C17.198397,34.154919 21.587498,36.671528 25.641609,38.871868 
	C19.484570,43.378483 19.160807,46.518528 24.725441,51.063988 
	C24.249073,52.980106 23.684925,55.033531 24.338732,56.568020 
	C24.953970,58.011982 26.853849,58.908592 28.093498,60.431519 
	C26.988979,62.051609 26.220114,63.852440 24.920666,64.404594 
	C22.090498,65.607178 18.990013,66.173599 16.000000,67.000000 
z"/>
<path fill="#41A73B" opacity="1.000000" stroke="none" 
	d="
M16.468657,67.000000 
	C18.990013,66.173599 22.090498,65.607178 24.920666,64.404594 
	C26.220114,63.852440 26.988979,62.051609 28.383417,60.438263 
	C29.154629,60.050224 29.540874,60.040951 29.927120,60.031677 
	C32.224968,65.914642 38.087299,64.755569 42.763031,66.704460 
	C34.312439,67.000000 25.624874,67.000000 16.468657,67.000000 
z"/>
<path fill="#3EA538" opacity="1.000000" stroke="none" 
	d="
M3.001793,27.717224 
	C2.515550,27.388334 2.029307,27.059446 1.271532,26.865280 
	C1.000000,27.000000 1.000000,26.500000 1.000000,26.250000 
	C1.436090,26.079321 1.872179,26.158644 2.656420,26.520992 
	C3.006386,27.108429 3.005460,27.412830 3.001793,27.717224 
z"/>
<path fill="#3DA536" opacity="1.000000" stroke="none" 
	d="
M3.341305,27.897173 
	C3.005460,27.412830 3.006386,27.108429 3.001493,26.575735 
	C13.773169,26.347452 24.547922,26.347452 35.322678,26.347452 
	C35.424160,25.959978 35.525642,25.572504 35.627125,25.185030 
	C32.977749,24.244387 30.139082,23.640186 27.724751,22.281796 
	C24.364981,20.391462 20.826338,18.386606 18.291115,15.590417 
	C15.968672,13.028909 16.796183,9.706317 19.546322,6.451274 
	C21.317429,17.602566 21.370817,17.393246 32.819897,20.245537 
	C36.372482,21.130587 39.556290,23.495924 42.269089,26.169119 
	C45.873585,26.169119 49.478081,26.169119 53.526108,26.499847 
	C53.975304,27.167667 53.980972,27.504761 53.986637,27.841852 
	C50.884731,29.239830 47.782829,30.637806 44.005520,32.055824 
	C42.815956,32.691742 42.301796,33.307625 41.787636,33.923504 
	C39.089851,36.244919 36.392067,38.566330 33.017605,40.969070 
	C31.750980,40.208920 31.161034,39.367447 30.571087,38.525974 
	C31.096111,40.121037 27.910944,43.896957 33.061314,42.770950 
	C35.112061,43.605392 37.162804,44.439835 39.213551,45.274277 
	C37.533401,47.249748 35.984524,49.364883 34.106606,51.129936 
	C33.385014,51.808151 31.913662,51.688660 30.204399,51.761395 
	C28.139742,51.384995 26.654625,51.179844 25.169506,50.974693 
	C19.160807,46.518528 19.484570,43.378483 25.641609,38.871868 
	C21.587498,36.671528 17.198397,34.154919 12.684109,31.887552 
	C9.778150,30.427992 6.688265,29.334621 3.341305,27.897173 
M29.198668,48.079868 
	C28.974834,48.567261 28.750999,49.054653 28.527164,49.542046 
	C28.963774,49.484177 29.400383,49.426308 30.689972,49.212875 
	C31.974979,48.265759 33.259987,47.318642 34.544994,46.371529 
	C33.805359,45.896091 32.640926,44.859665 32.399647,45.042370 
	C31.356894,45.831970 30.584276,46.978321 29.198668,48.079868 
M25.730284,46.124172 
	C25.591784,45.578983 25.453281,45.033798 25.314783,44.488609 
	C24.954924,44.678806 24.595064,44.869003 24.235203,45.059196 
	C24.587296,45.558025 24.939388,46.056850 25.730284,46.124172 
M37.726315,30.119379 
	C37.533642,29.574509 37.340969,29.029636 37.148296,28.484766 
	C36.868946,28.612505 36.589592,28.740246 36.310242,28.867987 
	C36.636887,29.428764 36.963531,29.989542 37.726315,30.119379 
M36.283005,34.002300 
	C36.018238,33.839870 35.753471,33.677444 35.488705,33.515015 
	C35.653591,33.778893 35.818474,34.042774 36.283005,34.002300 
z"/>
<path fill="#1C1C1C" opacity="1.000000" stroke="none" 
	d="
M78.996872,48.998871 
	C78.326187,49.707035 77.753220,50.559746 76.964340,51.093063 
	C75.357018,52.179680 73.595383,53.892365 71.970078,53.815170 
	C70.770180,53.758179 68.843925,51.310593 68.781570,49.861832 
	C68.716644,48.353371 70.313011,45.688213 71.521996,45.477943 
	C73.123230,45.199448 75.106522,46.718029 76.813599,47.666016 
	C77.405350,47.994629 77.662811,48.925201 78.538040,49.444889 
	C79.003120,49.308949 78.996872,48.998871 78.996872,48.998871 
z"/>
<path fill="#252525" opacity="1.000000" stroke="none" 
	d="
M52.988914,54.140392 
	C51.056984,53.565735 49.517834,52.974865 47.978683,52.383995 
	C48.146069,51.962196 48.313457,51.540394 48.480843,51.118595 
	C50.303143,51.377884 52.125446,51.637173 54.508068,51.976185 
	C53.415554,47.872471 45.069515,49.134811 49.410450,43.445087 
	C50.363575,42.195816 53.706287,42.769661 55.948566,42.503941 
	C55.983253,43.149708 56.017941,43.795479 56.052624,44.441246 
	C54.394577,44.533573 52.736530,44.625900 50.966988,44.724434 
	C53.130333,47.071014 55.010094,49.109989 56.889862,51.148972 
	C55.720470,52.140709 54.551083,53.132442 52.988914,54.140392 
z"/>
<path fill="#262626" opacity="1.000000" stroke="none" 
	d="
M89.015083,46.465115 
	C92.324348,43.753906 91.112175,48.991570 93.468742,48.657341 
	C94.256004,47.605396 95.245506,46.283218 96.534393,44.560989 
	C96.771126,51.908394 93.298355,57.464779 88.215134,57.231682 
	C89.732147,56.107414 90.756783,55.348053 91.964622,54.452915 
	C91.033165,52.032368 90.085533,49.569778 89.077774,46.729279 
	C89.017639,46.351364 89.015083,46.465115 89.015083,46.465115 
z"/>
<path fill="#67B862" opacity="1.000000" stroke="none" 
	d="
M24.725441,51.063988 
	C26.654625,51.179844 28.139742,51.384995 29.833443,51.856422 
	C30.308563,53.829296 30.678770,55.529053 30.791954,57.245762 
	C30.838953,57.958584 30.336937,58.707607 30.005852,59.735924 
	C29.540874,60.040951 29.154629,60.050224 28.478464,60.052757 
	C26.853849,58.908592 24.953970,58.011982 24.338732,56.568020 
	C23.684925,55.033531 24.249073,52.980106 24.725441,51.063988 
z"/>
<path fill="#060606" opacity="1.000000" stroke="none" 
	d="
M58.832245,46.978619 
	C58.832397,45.009453 58.832397,43.430115 58.832397,41.850777 
	C59.292892,41.801659 59.753391,41.752544 60.213886,41.703426 
	C60.638912,43.064758 61.063942,44.426090 61.548138,45.976940 
	C62.938530,45.976940 64.383224,45.976940 66.171173,45.976940 
	C66.022110,48.796623 65.884674,51.396194 65.747246,53.995770 
	C65.274727,54.009315 64.802208,54.022861 64.329689,54.036407 
	C64.132973,51.739799 63.936256,49.443192 63.739540,47.146580 
	C63.232830,47.020203 62.726120,46.893826 62.219410,46.767445 
	C61.576473,49.173393 60.933537,51.579338 60.290600,53.985287 
	C59.941257,54.004570 59.591911,54.023857 59.242569,54.043144 
	C59.105740,51.818245 58.968914,49.593346 58.832245,46.978619 
z"/>
<path fill="#1A1A1A" opacity="1.000000" stroke="none" 
	d="
M88.673416,46.509594 
	C89.015083,46.465115 89.017639,46.351364 89.035667,46.327187 
	C88.488777,46.780159 87.562050,47.174824 87.430733,47.750832 
	C87.111565,49.150822 87.161926,50.635059 86.691711,51.988056 
	C85.942863,50.629314 85.565727,49.367870 85.143677,47.956188 
	C82.716377,49.419266 80.947418,50.485516 79.178467,51.551765 
	C79.131561,51.127750 79.084663,50.703735 79.017319,49.639297 
	C78.996872,48.998871 79.003120,49.308949 79.012459,49.357956 
	C79.021797,48.146851 79.021797,46.886734 79.021797,44.877811 
	C82.460609,45.496971 85.396179,46.025524 88.673416,46.509594 
z"/>
<path fill="#3EA538" opacity="1.000000" stroke="none" 
	d="
M29.020239,4.943269 
	C34.517574,9.590624 35.022064,11.598114 30.522646,17.015081 
	C30.195148,14.679110 29.963692,12.323819 29.499348,10.015374 
	C29.269588,8.873150 28.610821,7.817220 28.210340,6.294662 
	C28.523096,5.559142 28.771667,5.251205 29.020239,4.943269 
z"/>
<path fill="#282828" opacity="1.000000" stroke="none" 
	d="
M79.102127,51.830460 
	C80.947418,50.485516 82.716377,49.419266 85.143677,47.956188 
	C85.565727,49.367870 85.942863,50.629314 86.406128,52.387272 
	C86.492264,52.883789 86.463768,52.868782 86.339600,52.486450 
	C85.149384,52.701229 84.083336,53.298344 83.017288,53.895458 
	C82.611710,53.926846 82.206139,53.958233 80.995102,53.953629 
	C79.852592,53.885300 79.515533,53.852970 79.178467,53.820641 
	C79.127579,53.250145 79.076691,52.679653 79.102127,51.830460 
z"/>
<path fill="#D2EAD1" opacity="1.000000" stroke="none" 
	d="
M33.051517,42.497292 
	C27.910944,43.896957 31.096111,40.121037 30.571087,38.525974 
	C31.161034,39.367447 31.750980,40.208920 32.690277,41.089783 
	C33.040321,41.493992 33.041019,41.858814 33.051517,42.497292 
z"/>
<path fill="#3DA536" opacity="1.000000" stroke="none" 
	d="
M24.803358,6.134305 
	C23.324232,6.516946 21.845108,6.899587 20.365982,7.282227 
	C20.116196,6.897140 19.866409,6.512053 19.616623,6.126966 
	C20.931013,5.389407 22.245403,4.651848 24.328613,4.183172 
	C24.999407,5.012805 24.901382,5.573555 24.803358,6.134305 
z"/>
<path fill="#3DA536" opacity="1.000000" stroke="none" 
	d="
M28.743008,4.626501 
	C28.771667,5.251205 28.523096,5.559142 28.005566,6.001609 
	C27.216352,6.104825 26.696098,6.073510 25.486122,5.908791 
	C24.639853,5.145107 24.483307,4.514828 24.326763,3.884548 
	C25.706434,4.026276 27.086103,4.168005 28.743008,4.626501 
z"/>
<path fill="#1A1A1A" opacity="1.000000" stroke="none" 
	d="
M83.307030,53.994953 
	C84.083336,53.298344 85.149384,52.701229 86.335663,52.501404 
	C85.502853,53.297279 84.549812,53.695866 83.307030,53.994953 
z"/>
<path fill="#1A1A1A" opacity="1.000000" stroke="none" 
	d="
M79.109299,54.211380 
	C79.515533,53.852970 79.852592,53.885300 80.691895,53.993279 
	C81.127449,55.168167 81.060760,56.267410 80.994072,57.366653 
	C80.601463,57.440216 80.208847,57.513779 79.816238,57.587341 
	C79.557533,56.592266 79.298828,55.597195 79.109299,54.211380 
z"/>
<path fill="#FDFDFD" opacity="1.000000" stroke="none" 
	d="
M42.105545,33.921402 
	C42.301796,33.307625 42.815956,32.691742 43.665398,32.176811 
	C43.474937,32.824940 42.949196,33.372124 42.105545,33.921402 
z"/>
<path fill="#49AA42" opacity="1.000000" stroke="none" 
	d="
M54.303444,27.813004 
	C53.980972,27.504761 53.975304,27.167667 53.972359,26.577721 
	C54.723888,26.243034 55.472706,26.161207 56.987797,25.995640 
	C55.811352,26.884359 55.215801,27.334257 54.303444,27.813004 
z"/>
<path fill="#FDFDFD" opacity="1.000000" stroke="none" 
	d="
M24.340466,3.912280 
	C24.483307,4.514828 24.639853,5.145107 25.097122,5.948175 
	C25.397846,6.120965 24.990723,6.052265 24.897041,6.093285 
	C24.901382,5.573555 24.999407,5.012805 24.740360,4.173506 
	C24.383289,3.894957 24.354168,3.940011 24.340466,3.912280 
z"/>
<path fill="#FDFDFD" opacity="1.000000" stroke="none" 
	d="
M37.255608,60.642994 
	C37.007862,60.628258 36.872795,60.495285 36.737728,60.362316 
	C36.947914,60.416466 37.158104,60.470612 37.255608,60.642994 
z"/>
<path fill="#67B862" opacity="1.000000" stroke="none" 
	d="
M33.464592,59.498577 
	C33.489456,59.509041 33.439724,59.488113 33.464592,59.498577 
z"/>
<path fill="#D2EAD1" opacity="1.000000" stroke="none" 
	d="
M29.713371,47.994869 
	C30.584276,46.978321 31.356894,45.831970 32.399647,45.042370 
	C32.640926,44.859665 33.805359,45.896091 34.544994,46.371529 
	C33.259987,47.318642 31.974979,48.265759 30.222742,48.947952 
	C29.741465,48.453640 29.727419,48.224255 29.713371,47.994869 
z"/>
<path fill="#40A63A" opacity="1.000000" stroke="none" 
	d="
M25.510883,46.339924 
	C24.939388,46.056850 24.587296,45.558025 24.235205,45.059196 
	C24.595064,44.869003 24.954924,44.678806 25.314781,44.488609 
	C25.453281,45.033798 25.591784,45.578983 25.510883,46.339924 
z"/>
<path fill="#3EA538" opacity="1.000000" stroke="none" 
	d="
M37.508247,30.334850 
	C36.963531,29.989542 36.636887,29.428764 36.310242,28.867987 
	C36.589592,28.740246 36.868946,28.612505 37.148296,28.484766 
	C37.340969,29.029636 37.533642,29.574509 37.508247,30.334850 
z"/>
<path fill="#40A63A" opacity="1.000000" stroke="none" 
	d="
M29.456020,48.037369 
	C29.727419,48.224255 29.741465,48.453640 29.796253,49.025734 
	C29.400383,49.426308 28.963774,49.484177 28.527164,49.542046 
	C28.750999,49.054653 28.974834,48.567261 29.456020,48.037369 
z"/>
<path fill="#3EA538" opacity="1.000000" stroke="none" 
	d="
M36.133183,34.154476 
	C35.818474,34.042774 35.653591,33.778893 35.488705,33.515015 
	C35.753471,33.677444 36.018238,33.839870 36.133183,34.154476 
z"/>
</svg>